<svg id="Capa_1" enable-background="new 0 0 512 512" height="512" viewBox="0 0 512 512" width="512" xmlns="http://www.w3.org/2000/svg"><g><g><path d="m452 67.5c0-16.569-13.431-30-30-30h-282l-5 457 312.977-5c2.554-4.414 4.023-9.534 4.023-15z" fill="#edf6ff"/><path d="m140 474.5v-437c-8.284 0-15 6.716-15 15v437c0 8.284 6.716 15 15 15h282c11.102 0 20.789-6.036 25.977-15h-292.977c-8.284 0-15-6.716-15-15z" fill="#cde2ff"/><path d="m422 37.5c0-16.569-13.431-30-30-30h-282l-5 457 312.977-5c2.554-4.414 4.023-9.534 4.023-15z" fill="#94ccd4"/><path d="m110 444.5v-437c-8.284 0-15 6.716-15 15v437c0 8.284 6.716 15 15 15h282c11.102 0 20.789-6.036 25.977-15h-292.977c-8.284 0-15-6.716-15-15z" fill="#61aab8"/></g><g><path d="m422 512h-282c-12.407 0-22.5-10.093-22.5-22.5v-7.5h-7.5c-12.407 0-22.5-10.093-22.5-22.5v-27.5h-27.5c-4.142 0-7.5-3.358-7.5-7.5s3.358-7.5 7.5-7.5h27.5v-14.929c0-4.142 3.358-7.5 7.5-7.5s7.5 3.358 7.5 7.5v14.929h22.5c4.142 0 7.5 3.358 7.5 7.5s-3.358 7.5-7.5 7.5h-22.5v27.5c0 4.136 3.364 7.5 7.5 7.5h282c12.407 0 22.5-10.093 22.5-22.5v-299.997c0-4.142 3.358-7.5 7.5-7.5s7.5 3.358 7.5 7.5v299.997c0 20.678-16.822 37.5-37.5 37.5h-259.5v7.5c0 4.136 3.364 7.5 7.5 7.5h282c12.407 0 22.5-10.093 22.5-22.5v-119.997c0-4.142 3.358-7.5 7.5-7.5s7.5 3.358 7.5 7.5v119.997c0 20.678-16.822 37.5-37.5 37.5zm-297-132.429h-65c-4.142 0-7.5-3.358-7.5-7.5s3.358-7.5 7.5-7.5h27.5v-37.428h-27.5c-4.142 0-7.5-3.358-7.5-7.5s3.358-7.5 7.5-7.5h27.5v-37.429h-27.5c-4.142 0-7.5-3.358-7.5-7.5s3.358-7.5 7.5-7.5h27.5v-37.429h-27.5c-4.142 0-7.5-3.358-7.5-7.5s3.358-7.5 7.5-7.5h27.5v-37.429h-27.5c-4.142 0-7.5-3.358-7.5-7.5s3.358-7.5 7.5-7.5h27.5v-37.428h-27.5c-4.142 0-7.5-3.358-7.5-7.5s3.358-7.5 7.5-7.5h27.5v-37.428h-27.5c-4.142 0-7.5-3.358-7.5-7.5s3.358-7.5 7.5-7.5h27.5v-27.5c0-12.407 10.093-22.5 22.5-22.5h282c18.332 0 33.633 13.223 36.87 30.63 17.408 3.236 30.63 18.538 30.63 36.87v257.003c0 4.142-3.358 7.5-7.5 7.5s-7.5-3.358-7.5-7.5v-257.003c0-9.778-6.27-18.12-15-21.215v68.218c0 4.142-3.358 7.5-7.5 7.5s-7.5-3.358-7.5-7.5v-77.003c0-12.407-10.093-22.5-22.5-22.5h-282c-4.136 0-7.5 3.364-7.5 7.5v27.5h22.5c4.142 0 7.5 3.358 7.5 7.5s-3.358 7.5-7.5 7.5h-22.5v37.429h22.5c4.142 0 7.5 3.358 7.5 7.5s-3.358 7.5-7.5 7.5h-22.5v37.428h22.5c4.142 0 7.5 3.358 7.5 7.5s-3.358 7.5-7.5 7.5h-22.5v37.429h22.5c4.142 0 7.5 3.358 7.5 7.5s-3.358 7.5-7.5 7.5h-22.5v37.429h22.5c4.142 0 7.5 3.358 7.5 7.5s-3.358 7.5-7.5 7.5h-22.5v37.429h22.5c4.142 0 7.5 3.358 7.5 7.5s-3.358 7.5-7.5 7.5h-22.5v37.428h22.5c4.142 0 7.5 3.358 7.5 7.5s-3.358 7.499-7.5 7.499z"/></g></g></svg>